<svg xmlns="http://www.w3.org/2000/svg" width="259" height="77" viewBox="0 0 259 77" fill="none"><path d="M0 10.2667C0 4.59654 4.58333 0 10.2372 0H248.763C254.417 0 259 4.59654 259 10.2667V66.7333C259 72.4035 254.417 77 248.763 77H10.2372C4.58333 77 0 72.4035 0 66.7333V10.2667Z" fill="black"></path><path fill-rule="evenodd" clip-rule="evenodd" d="M0 66.7333V10.2667C0 4.59654 4.58333 0 10.2372 0H248.763C254.417 0 259 4.59654 259 10.2667V66.7333C259 72.4035 254.417 77 248.763 77H10.2372C4.58333 77 0 72.4035 0 66.7333ZM1.53557 66.7333V10.2667C1.53557 5.44706 5.4314 1.54 10.2372 1.54H248.763C253.569 1.54 257.464 5.44706 257.464 10.2667V66.7333C257.464 71.5529 253.569 75.46 248.763 75.46H10.2372C5.4314 75.46 1.53557 71.5529 1.53557 66.7333Z" fill="white" fill-opacity="0.3"></path><path d="M83.4943 24C86.5966 24 88.4759 22.081 88.4759 18.8991C88.4759 15.7273 86.5966 13.8182 83.5241 13.8182H79.8849V24H83.4943ZM82.0376 22.1555V15.6626H83.4098C85.3189 15.6626 86.3281 16.6371 86.3281 18.8991C86.3281 21.1712 85.3189 22.1555 83.4048 22.1555H82.0376ZM92.2232 13.8182H90.0705V24H92.2232V13.8182ZM99.5178 16.7464H101.581C101.551 14.9318 100.06 13.679 97.7926 13.679C95.5604 13.679 93.9247 14.9119 93.9347 16.7614C93.9297 18.2628 94.9886 19.1229 96.7088 19.5355L97.8175 19.8139C98.9261 20.0824 99.5426 20.4006 99.5476 21.0866C99.5426 21.8324 98.8366 22.3395 97.7429 22.3395C96.6243 22.3395 95.8189 21.8224 95.7493 20.8033H93.6662C93.7209 23.0057 95.2969 24.1442 97.7678 24.1442C100.254 24.1442 101.715 22.956 101.72 21.0916C101.715 19.3963 100.438 18.4964 98.6676 18.0987L97.7528 17.88C96.8679 17.6761 96.1271 17.348 96.142 16.6172C96.142 15.9609 96.7237 15.4787 97.7777 15.4787C98.8068 15.4787 99.4382 15.946 99.5178 16.7464ZM103.168 24H105.321V20.6989H107.131C109.472 20.6989 110.834 19.3018 110.834 17.2685C110.834 15.245 109.497 13.8182 107.185 13.8182H103.168V24ZM105.321 18.9737V15.5781H106.773C108.015 15.5781 108.617 16.2543 108.617 17.2685C108.617 18.2777 108.015 18.9737 106.782 18.9737H105.321ZM121.589 18.9091C121.589 15.5781 119.521 13.679 116.821 13.679C114.107 13.679 112.054 15.5781 112.054 18.9091C112.054 22.2251 114.107 24.1392 116.821 24.1392C119.521 24.1392 121.589 22.2401 121.589 18.9091ZM119.407 18.9091C119.407 21.0668 118.382 22.2351 116.821 22.2351C115.255 22.2351 114.236 21.0668 114.236 18.9091C114.236 16.7514 115.255 15.5831 116.821 15.5831C118.382 15.5831 119.407 16.7514 119.407 18.9091ZM131.7 13.8182H129.557V20.2216H129.468L125.073 13.8182H123.184V24H125.336V17.5916H125.411L129.841 24H131.7V13.8182ZM135.631 13.8182H133.479V24H135.631V13.8182ZM137.403 24H141.753C144.04 24 145.258 22.8068 145.258 21.1861C145.258 19.6797 144.179 18.7699 143.02 18.7152V18.6158C144.079 18.3771 144.86 17.6264 144.86 16.4283C144.86 14.902 143.726 13.8182 141.479 13.8182H137.403V24ZM139.555 22.2401V19.5355H141.36C142.394 19.5355 143.035 20.1321 143.035 20.9723C143.035 21.7379 142.513 22.2401 141.31 22.2401H139.555ZM139.555 18.0788V15.5582H141.191C142.145 15.5582 142.687 16.0504 142.687 16.7862C142.687 17.5916 142.031 18.0788 141.151 18.0788H139.555ZM146.658 24H153.176V22.2251H148.811V13.8182H146.658V24ZM154.602 24H161.482V22.2251H156.754V19.794H161.11V18.0192H156.754V15.593H161.463V13.8182H154.602V24ZM171.938 16.7464H174.001C173.971 14.9318 172.48 13.679 170.213 13.679C167.98 13.679 166.345 14.9119 166.355 16.7614C166.35 18.2628 167.409 19.1229 169.129 19.5355L170.237 19.8139C171.346 20.0824 171.963 20.4006 171.968 21.0866C171.963 21.8324 171.257 22.3395 170.163 22.3395C169.044 22.3395 168.239 21.8224 168.169 20.8033H166.086C166.141 23.0057 167.717 24.1442 170.188 24.1442C172.673 24.1442 174.135 22.956 174.14 21.0916C174.135 19.3963 172.857 18.4964 171.088 18.0987L170.173 17.88C169.288 17.6761 168.547 17.348 168.562 16.6172C168.562 15.9609 169.144 15.4787 170.198 15.4787C171.227 15.4787 171.858 15.946 171.938 16.7464ZM181.877 13.8182V20.2464C181.877 21.4098 181.062 22.25 179.809 22.25C178.561 22.25 177.741 21.4098 177.741 20.2464V13.8182H175.588V20.4304C175.588 22.6577 177.268 24.1442 179.809 24.1442C182.339 24.1442 184.03 22.6577 184.03 20.4304V13.8182H181.877ZM185.801 24H187.954V20.3906H189.525L191.454 24H193.83L191.667 20.0426C192.826 19.5455 193.467 18.5362 193.467 17.1442C193.467 15.1207 192.13 13.8182 189.818 13.8182H185.801V24ZM187.954 18.6605V15.5781H189.405C190.648 15.5781 191.25 16.13 191.25 17.1442C191.25 18.1534 190.648 18.6605 189.415 18.6605H187.954Z" fill="white"></path><path d="M54.6107 46.7549C60.7432 43.3467 65.3927 40.75 65.7933 40.5483C67.0749 39.8581 68.399 38.032 65.7933 36.6138C64.952 36.1678 60.4224 33.6515 54.6107 30.4072L46.5547 38.6415L54.6103 46.7549H54.6107Z" fill="#FFD900"></path><path d="M46.5548 38.6416L20.9023 64.8079C21.504 64.8887 22.1839 64.727 22.9857 64.2811C24.6684 63.3492 42.5052 53.4901 54.6113 46.7568L46.5548 38.6416Z" fill="#F43249"></path><path d="M46.5542 38.6418L54.6098 30.4476C54.6098 30.4476 24.7894 13.9769 22.9847 13.005C22.3058 12.5964 21.5439 12.4755 20.8623 12.5964L46.5542 38.6414V38.6418Z" fill="#00EE76"></path><path d="M46.5549 38.6417L20.8625 12.5967C19.8197 12.8405 18.9385 13.7729 18.9385 15.6789V61.7245C18.9385 63.4701 19.6205 64.7271 20.902 64.8479L46.5544 38.6412L46.5549 38.6417Z" fill="#00D3FF"></path><path d="M131.232 41.8311C126.623 41.8311 122.815 45.441 122.815 50.3905C122.815 55.2996 126.583 58.9499 131.233 58.9499C135.882 58.9499 139.65 55.34 139.65 50.3905C139.65 45.441 135.882 41.8311 131.232 41.8311ZM131.232 55.5439C128.707 55.5439 126.504 53.3931 126.504 50.3523C126.504 47.2692 128.708 45.1607 131.232 45.1607C133.756 45.1607 135.961 47.2692 135.961 50.3523C135.961 53.3931 133.756 55.5439 131.232 55.5439ZM112.915 41.8311C108.266 41.8311 104.497 45.441 104.497 50.3905C104.497 55.2996 108.266 58.9499 112.915 58.9499C117.564 58.9499 121.332 55.34 121.332 50.3905C121.332 45.441 117.564 41.8311 112.915 41.8311H112.915ZM112.915 55.5439C110.389 55.5439 108.186 53.3931 108.186 50.3523C108.186 47.2692 110.391 45.1607 112.915 45.1607C115.441 45.1607 117.644 47.2692 117.644 50.3523C117.644 53.3931 115.479 55.5439 112.915 55.5439ZM91.1502 44.4682V48.0781H99.6469C99.4055 50.1062 98.7261 51.6071 97.7233 52.622C96.4812 53.8791 94.5572 55.2591 91.1502 55.2591C85.8986 55.2591 81.8517 50.9595 81.8517 45.6448C81.8517 40.3302 85.9008 35.9493 91.1502 35.9493C93.995 35.9493 96.0406 37.0855 97.5635 38.5464L100.088 35.9897C97.9625 33.9216 95.1176 32.3398 91.1502 32.3398C83.9745 32.3398 77.9619 38.3021 77.9619 45.564C77.9619 52.8264 83.9745 58.7886 91.1502 58.7886C95.0378 58.7886 97.9247 57.4912 100.249 55.0557C102.614 52.6625 103.335 49.2947 103.335 46.5772C103.335 45.7257 103.256 44.9546 103.134 44.3052L91.1502 44.4682ZM180.213 47.267C179.531 45.3601 177.368 41.8311 173.037 41.8311C168.707 41.8311 165.141 45.2797 165.141 50.3905C165.141 55.1765 168.707 58.9499 173.438 58.9499C177.286 58.9499 179.491 56.5566 180.412 55.1765L177.567 53.2297C176.605 54.6502 175.323 55.5821 173.438 55.5821C171.554 55.5821 170.232 54.7306 169.389 52.9854L180.572 48.2398L180.213 47.267ZM168.829 50.1484C168.75 46.8615 171.355 45.1585 173.197 45.1585C174.681 45.1585 175.883 45.8887 176.323 46.9845L168.829 50.1484ZM159.73 58.3826H163.418V33.3122H159.73V58.3826ZM153.719 43.738H153.599C152.758 42.723 151.195 41.8311 149.19 41.8311C144.981 41.8311 141.173 45.6044 141.173 50.3905C141.173 55.1765 145.021 58.9099 149.19 58.9099C151.193 58.9099 152.756 58.0175 153.599 56.9621H153.719V58.1792C153.719 61.4661 151.994 63.2091 149.23 63.2091C146.985 63.2091 145.581 61.5465 145.021 60.1665L141.815 61.5465C142.736 63.8185 145.182 66.6173 149.23 66.6173C153.558 66.6173 157.206 64.0206 157.206 57.7332V42.3579H153.719V43.738ZM149.51 55.5439C146.985 55.5439 144.861 53.3931 144.861 50.3927C144.861 47.3923 146.986 45.2007 149.51 45.2007C151.997 45.2007 154 47.3923 154 50.3927C153.998 53.3527 151.994 55.5439 149.51 55.5439ZM197.408 33.3126H188.59V58.3826H192.279V48.8891H197.408C201.497 48.8891 205.505 45.8865 205.505 41.1009C205.505 36.3148 201.497 33.3122 197.408 33.3122V33.3126ZM197.528 45.4028H192.316V36.8008H197.528C200.253 36.8008 201.856 39.1132 201.856 41.1004C201.818 43.0477 200.255 45.4028 197.528 45.4028ZM220.216 41.7907C217.57 41.7907 214.805 42.9673 213.682 45.6448L216.93 47.0249C217.652 45.6448 218.934 45.1989 220.298 45.1989C222.222 45.1989 224.145 46.3751 224.185 48.4432V48.6875C223.503 48.282 222.102 47.713 220.337 47.713C216.811 47.713 213.242 49.7007 213.242 53.3527C213.242 56.7201 216.129 58.8695 219.335 58.8695C221.82 58.8695 223.182 57.7332 224.024 56.3954H224.143V58.3427H227.71V48.7275C227.67 44.3065 224.424 41.7902 220.216 41.7902V41.7907ZM219.775 55.5034C218.573 55.5034 216.888 54.894 216.888 53.3949C216.888 51.4476 218.972 50.7174 220.776 50.7174C222.379 50.7174 223.141 51.0825 224.143 51.5689C223.863 53.8813 221.899 55.5034 219.775 55.5034ZM240.577 42.3601L236.368 53.191H236.249L231.881 42.3597H227.913L234.486 57.5311L230.758 66.0101H234.605L244.665 42.3597H240.577L240.577 42.3601ZM207.55 58.3826H211.238V33.3122H207.55V58.3826Z" fill="white"></path></svg>