<svg xmlns="http://www.w3.org/2000/svg" width="259" height="77" viewBox="0 0 259 77" fill="none"><path d="M0 10.2667C0 4.59654 4.58333 0 10.2372 0H248.763C254.417 0 259 4.59654 259 10.2667V66.7333C259 72.4035 254.417 77 248.763 77H10.2372C4.58333 77 0 72.4035 0 66.7333V10.2667Z" fill="black"></path><path fill-rule="evenodd" clip-rule="evenodd" d="M0 66.7333V10.2667C0 4.59654 4.58333 0 10.2372 0H248.763C254.417 0 259 4.59654 259 10.2667V66.7333C259 72.4035 254.417 77 248.763 77H10.2372C4.58333 77 0 72.4035 0 66.7333ZM1.53557 66.7333V10.2667C1.53557 5.44706 5.4314 1.54 10.2372 1.54H248.763C253.569 1.54 257.464 5.44706 257.464 10.2667V66.7333C257.464 71.5529 253.569 75.46 248.763 75.46H10.2372C5.4314 75.46 1.53557 71.5529 1.53557 66.7333Z" fill="white" fill-opacity="0.3"></path><path d="M58.5275 40.0674C58.5011 35.5545 60.5399 32.1533 64.6572 29.6454C62.3544 26.3368 58.8706 24.5171 54.2782 24.1663C49.93 23.8223 45.1728 26.7073 43.4309 26.7073C41.59 26.7073 37.3803 24.2855 34.0681 24.2855C27.2324 24.3913 19.9678 29.7513 19.9678 40.6564C19.9678 43.8789 20.555 47.2074 21.7295 50.6351C23.2998 55.148 28.9611 66.2053 34.8664 66.0267C37.9544 65.9539 40.1384 63.8298 44.1567 63.8298C48.0562 63.8298 50.0752 66.0267 53.5195 66.0267C59.4776 65.9406 64.5978 55.8891 66.089 51.363C58.0986 47.5846 58.5275 40.299 58.5275 40.0674ZM51.5928 19.885C54.9381 15.9015 54.6345 12.2753 54.5356 10.9717C51.5796 11.1437 48.1617 12.9899 46.2153 15.2596C44.0709 17.6947 42.8106 20.7056 43.0812 24.1002C46.2747 24.345 49.1911 22.6973 51.5928 19.885Z" fill="white"></path><path d="M94.5681 55.7212H91.1792L89.3229 49.8441H82.8704L81.1021 55.7212H77.8027L84.1955 35.7128H88.144L94.5681 55.7212ZM88.7633 47.3784L87.0845 42.1538C86.9069 41.62 86.5741 40.3631 86.0832 38.3845H86.0235C85.828 39.2355 85.5132 40.4924 85.0804 42.1538L83.4315 47.3784H88.7633Z" fill="white"></path><path d="M111.008 48.3302C111.008 50.7839 110.35 52.7234 109.034 54.1472C107.855 55.4146 106.391 56.0476 104.644 56.0476C102.758 56.0476 101.403 55.365 100.577 53.9998H100.518V61.5999H97.3362V46.0434C97.3362 44.5008 97.2959 42.9176 97.2183 41.2939H100.016L100.194 43.5807H100.254C101.315 41.8577 102.925 40.9977 105.085 40.9977C106.775 40.9977 108.185 41.6698 109.313 43.0154C110.444 44.3625 111.008 46.1336 111.008 48.3302ZM107.767 48.4475C107.767 47.0432 107.454 45.8855 106.824 44.9744C106.136 44.0242 105.212 43.5491 104.054 43.5491C103.269 43.5491 102.556 43.8137 101.919 44.3354C101.28 44.8616 100.862 45.5487 100.667 46.3997C100.568 46.7966 100.519 47.1214 100.519 47.377V49.7825C100.519 50.832 100.838 51.7175 101.477 52.4407C102.116 53.1639 102.946 53.5247 103.966 53.5247C105.164 53.5247 106.097 53.0586 106.764 52.1295C107.433 51.1988 107.767 49.972 107.767 48.4475Z" fill="white"></path><path d="M127.479 48.3302C127.479 50.7839 126.82 52.7234 125.503 54.1472C124.325 55.4146 122.862 56.0476 121.114 56.0476C119.228 56.0476 117.873 55.365 117.049 53.9998H116.99V61.5999H113.808V46.0434C113.808 44.5008 113.768 42.9176 113.69 41.2939H116.488L116.666 43.5807H116.725C117.785 41.8577 119.395 40.9977 121.557 40.9977C123.245 40.9977 124.655 41.6698 125.786 43.0154C126.913 44.3625 127.479 46.1336 127.479 48.3302ZM124.237 48.4475C124.237 47.0432 123.923 45.8855 123.293 44.9744C122.605 44.0242 121.684 43.5491 120.525 43.5491C119.738 43.5491 119.026 43.8137 118.388 44.3354C117.749 44.8616 117.333 45.5487 117.137 46.3997C117.04 46.7966 116.99 47.1214 116.99 47.377V49.7825C116.99 50.832 117.309 51.7175 117.945 52.4407C118.583 53.1624 119.413 53.5247 120.437 53.5247C121.635 53.5247 122.568 53.0586 123.235 52.1295C123.903 51.1988 124.237 49.972 124.237 48.4475Z" fill="white"></path><path d="M145.893 50.1105C145.893 51.8124 145.307 53.1971 144.129 54.2661C142.836 55.4343 141.034 56.0176 138.72 56.0176C136.583 56.0176 134.87 55.6027 133.573 54.7712L134.31 52.0996C135.707 52.9505 137.24 53.3775 138.909 53.3775C140.108 53.3775 141.04 53.1039 141.71 52.5596C142.377 52.0154 142.71 51.2847 142.71 50.3736C142.71 49.5617 142.436 48.8776 141.885 48.3228C141.337 47.768 140.423 47.2523 139.145 46.7757C135.668 45.4692 133.931 43.5553 133.931 41.0384C133.931 39.3936 134.54 38.045 135.759 36.9956C136.974 35.9446 138.595 35.4199 140.621 35.4199C142.428 35.4199 143.929 35.7372 145.128 36.3701L144.332 38.9832C143.213 38.3698 141.948 38.063 140.531 38.063C139.412 38.063 138.538 38.3412 137.911 38.8945C137.381 39.3891 137.116 39.992 137.116 40.7062C137.116 41.497 137.419 42.151 138.028 42.6652C138.557 43.1403 139.52 43.6545 140.917 44.2093C142.625 44.9024 143.88 45.7128 144.687 46.6419C145.492 47.5681 145.893 48.7272 145.893 50.1105Z" fill="white"></path><path d="M156.411 43.6998H152.905V50.7045C152.905 52.4861 153.522 53.3762 154.761 53.3762C155.33 53.3762 155.801 53.3266 156.174 53.2273L156.262 55.6615C155.635 55.8975 154.81 56.0163 153.788 56.0163C152.532 56.0163 151.55 55.6299 150.841 54.8586C150.135 54.0858 149.78 52.7898 149.78 50.9691V43.6967H147.691V41.2912H149.78V38.6496L152.905 37.6994V41.2912H156.411V43.6998Z" fill="white"></path><path d="M172.234 48.3888C172.234 50.6065 171.604 52.4272 170.348 53.851C169.03 55.3169 167.281 56.0476 165.101 56.0476C163 56.0476 161.327 55.3454 160.08 53.9412C158.832 52.5369 158.208 50.7643 158.208 48.6279C158.208 46.3922 158.85 44.561 160.138 43.1372C161.423 41.7119 163.157 40.9992 165.337 40.9992C167.438 40.9992 169.129 41.7013 170.404 43.1071C171.625 44.4708 172.234 46.2313 172.234 48.3888ZM168.933 48.4926C168.933 47.162 168.651 46.0208 168.079 45.0691C167.412 43.9175 166.459 43.3431 165.223 43.3431C163.944 43.3431 162.973 43.919 162.306 45.0691C161.734 46.0223 161.452 47.1815 161.452 48.5527C161.452 49.8833 161.734 51.0244 162.306 51.9746C162.994 53.1263 163.955 53.7006 165.195 53.7006C166.41 53.7006 167.363 53.1143 168.051 51.9446C168.638 50.9748 168.933 49.8216 168.933 48.4926Z" fill="white"></path><path d="M182.575 44.1129C182.26 44.0543 181.924 44.0242 181.572 44.0242C180.453 44.0242 179.587 44.4497 178.979 45.3022C178.449 46.0539 178.183 47.0041 178.183 48.1513V55.7213H175.003L175.033 45.8374C175.033 44.1746 174.993 42.6606 174.914 41.2954H177.685L177.801 44.0558H177.889C178.225 43.1071 178.755 42.3433 179.48 41.7705C180.189 41.2548 180.954 40.9977 181.78 40.9977C182.074 40.9977 182.339 41.0187 182.575 41.0563V44.1129Z" fill="white"></path><path d="M196.803 47.8251C196.803 48.3994 196.765 48.8836 196.686 49.279H187.142C187.179 50.7043 187.64 51.7943 188.527 52.546C189.331 53.2181 190.371 53.5549 191.648 53.5549C193.062 53.5549 194.351 53.3279 195.51 52.8723L196.009 55.0975C194.654 55.6928 193.054 55.989 191.208 55.989C188.988 55.989 187.245 55.3305 185.976 54.0149C184.711 52.6994 184.077 50.9328 184.077 48.7167C184.077 46.5411 184.666 44.7294 185.847 43.2846C187.082 41.742 188.752 40.9707 190.853 40.9707C192.917 40.9707 194.479 41.742 195.54 43.2846C196.38 44.5099 196.803 46.0254 196.803 47.8251ZM193.769 46.9937C193.79 46.0435 193.582 45.2226 193.151 44.5295C192.601 43.6379 191.754 43.1929 190.616 43.1929C189.576 43.1929 188.73 43.6274 188.084 44.4994C187.554 45.1925 187.239 46.0239 187.142 46.9922H193.769V46.9937Z" fill="white"></path><path d="M85.4943 25C88.5966 25 90.4759 23.081 90.4759 19.8991C90.4759 16.7273 88.5966 14.8182 85.5241 14.8182H81.8849V25H85.4943ZM84.0376 23.1555V16.6626H85.4098C87.3189 16.6626 88.3281 17.6371 88.3281 19.8991C88.3281 22.1712 87.3189 23.1555 85.4048 23.1555H84.0376ZM94.2232 14.8182H92.0705V25H94.2232V14.8182ZM101.518 17.7464H103.581C103.551 15.9318 102.06 14.679 99.7926 14.679C97.5604 14.679 95.9247 15.9119 95.9347 17.7614C95.9297 19.2628 96.9886 20.1229 98.7088 20.5355L99.8175 20.8139C100.926 21.0824 101.543 21.4006 101.548 22.0866C101.543 22.8324 100.837 23.3395 99.7429 23.3395C98.6243 23.3395 97.8189 22.8224 97.7493 21.8033H95.6662C95.7209 24.0057 97.2969 25.1442 99.7678 25.1442C102.254 25.1442 103.715 23.956 103.72 22.0916C103.715 20.3963 102.438 19.4964 100.668 19.0987L99.7528 18.88C98.8679 18.6761 98.1271 18.348 98.142 17.6172C98.142 16.9609 98.7237 16.4787 99.7777 16.4787C100.807 16.4787 101.438 16.946 101.518 17.7464ZM105.168 25H107.321V21.6989H109.131C111.472 21.6989 112.834 20.3018 112.834 18.2685C112.834 16.245 111.497 14.8182 109.185 14.8182H105.168V25ZM107.321 19.9737V16.5781H108.773C110.015 16.5781 110.617 17.2543 110.617 18.2685C110.617 19.2777 110.015 19.9737 108.782 19.9737H107.321ZM123.589 19.9091C123.589 16.5781 121.521 14.679 118.821 14.679C116.107 14.679 114.054 16.5781 114.054 19.9091C114.054 23.2251 116.107 25.1392 118.821 25.1392C121.521 25.1392 123.589 23.2401 123.589 19.9091ZM121.407 19.9091C121.407 22.0668 120.382 23.2351 118.821 23.2351C117.255 23.2351 116.236 22.0668 116.236 19.9091C116.236 17.7514 117.255 16.5831 118.821 16.5831C120.382 16.5831 121.407 17.7514 121.407 19.9091ZM133.7 14.8182H131.557V21.2216H131.468L127.073 14.8182H125.184V25H127.336V18.5916H127.411L131.841 25H133.7V14.8182ZM137.631 14.8182H135.479V25H137.631V14.8182ZM139.403 25H143.753C146.04 25 147.258 23.8068 147.258 22.1861C147.258 20.6797 146.179 19.7699 145.02 19.7152V19.6158C146.079 19.3771 146.86 18.6264 146.86 17.4283C146.86 15.902 145.726 14.8182 143.479 14.8182H139.403V25ZM141.555 23.2401V20.5355H143.36C144.394 20.5355 145.035 21.1321 145.035 21.9723C145.035 22.7379 144.513 23.2401 143.31 23.2401H141.555ZM141.555 19.0788V16.5582H143.191C144.145 16.5582 144.687 17.0504 144.687 17.7862C144.687 18.5916 144.031 19.0788 143.151 19.0788H141.555ZM148.658 25H155.176V23.2251H150.811V14.8182H148.658V25ZM156.602 25H163.482V23.2251H158.754V20.794H163.11V19.0192H158.754V16.593H163.463V14.8182H156.602V25ZM173.938 17.7464H176.001C175.971 15.9318 174.48 14.679 172.213 14.679C169.98 14.679 168.345 15.9119 168.355 17.7614C168.35 19.2628 169.409 20.1229 171.129 20.5355L172.237 20.8139C173.346 21.0824 173.963 21.4006 173.968 22.0866C173.963 22.8324 173.257 23.3395 172.163 23.3395C171.044 23.3395 170.239 22.8224 170.169 21.8033H168.086C168.141 24.0057 169.717 25.1442 172.188 25.1442C174.673 25.1442 176.135 23.956 176.14 22.0916C176.135 20.3963 174.857 19.4964 173.088 19.0987L172.173 18.88C171.288 18.6761 170.547 18.348 170.562 17.6172C170.562 16.9609 171.144 16.4787 172.198 16.4787C173.227 16.4787 173.858 16.946 173.938 17.7464ZM183.877 14.8182V21.2464C183.877 22.4098 183.062 23.25 181.809 23.25C180.561 23.25 179.741 22.4098 179.741 21.2464V14.8182H177.588V21.4304C177.588 23.6577 179.268 25.1442 181.809 25.1442C184.339 25.1442 186.03 23.6577 186.03 21.4304V14.8182H183.877ZM187.801 25H189.954V21.3906H191.525L193.454 25H195.83L193.667 21.0426C194.826 20.5455 195.467 19.5362 195.467 18.1442C195.467 16.1207 194.13 14.8182 191.818 14.8182H187.801V25ZM189.954 19.6605V16.5781H191.405C192.648 16.5781 193.25 17.13 193.25 18.1442C193.25 19.1534 192.648 19.6605 191.415 19.6605H189.954Z" fill="white"></path></svg>