<svg width="141" height="29" viewBox="0 0 141 29" fill="none" xmlns="http://www.w3.org/2000/svg">
<path d="M22.9583 19.096C22.1103 19.096 21.3463 18.912 20.6663 18.544C19.9863 18.168 19.4503 17.652 19.0583 16.996C18.6743 16.34 18.4823 15.608 18.4823 14.8C18.4823 13.992 18.6743 13.26 19.0583 12.604C19.4503 11.948 19.9863 11.436 20.6663 11.068C21.3463 10.692 22.1103 10.504 22.9583 10.504C23.7983 10.504 24.5583 10.692 25.2383 11.068C25.9183 11.436 26.4503 11.948 26.8343 12.604C27.2183 13.252 27.4103 13.984 27.4103 14.8C27.4103 15.616 27.2183 16.352 26.8343 17.008C26.4503 17.656 25.9183 18.168 25.2383 18.544C24.5583 18.912 23.7983 19.096 22.9583 19.096ZM22.9583 18.028C23.5743 18.028 24.1263 17.888 24.6143 17.608C25.1103 17.328 25.4983 16.944 25.7783 16.456C26.0663 15.96 26.2103 15.408 26.2103 14.8C26.2103 14.192 26.0663 13.644 25.7783 13.156C25.4983 12.66 25.1103 12.272 24.6143 11.992C24.1263 11.712 23.5743 11.572 22.9583 11.572C22.3423 11.572 21.7823 11.712 21.2783 11.992C20.7823 12.272 20.3903 12.66 20.1023 13.156C19.8223 13.644 19.6823 14.192 19.6823 14.8C19.6823 15.408 19.8223 15.96 20.1023 16.456C20.3903 16.944 20.7823 17.328 21.2783 17.608C21.7823 17.888 22.3423 18.028 22.9583 18.028ZM35.0044 12.64V19H33.9124V18.04C33.6804 18.368 33.3724 18.624 32.9884 18.808C32.6124 18.984 32.2004 19.072 31.7524 19.072C30.9044 19.072 30.2364 18.84 29.7484 18.376C29.2604 17.904 29.0164 17.212 29.0164 16.3V12.64H30.1684V16.168C30.1684 16.784 30.3164 17.252 30.6124 17.572C30.9084 17.884 31.3324 18.04 31.8844 18.04C32.4924 18.04 32.9724 17.856 33.3244 17.488C33.6764 17.12 33.8524 16.6 33.8524 15.928V12.64H35.0044ZM42.8255 12.64L40.0415 19H38.8655L36.0815 12.64H37.2815L39.4655 17.74L41.6975 12.64H42.8255ZM45.0046 13.708C45.2046 13.34 45.5006 13.06 45.8926 12.868C46.2846 12.676 46.7606 12.58 47.3206 12.58V13.696C47.2566 13.688 47.1686 13.684 47.0566 13.684C46.4326 13.684 45.9406 13.872 45.5806 14.248C45.2286 14.616 45.0526 15.144 45.0526 15.832V19H43.9006V12.64H45.0046V13.708ZM48.7404 12.64H49.8924V19H48.7404V12.64ZM49.3164 11.416C49.0924 11.416 48.9044 11.344 48.7524 11.2C48.6084 11.056 48.5364 10.88 48.5364 10.672C48.5364 10.464 48.6084 10.288 48.7524 10.144C48.9044 9.992 49.0924 9.916 49.3164 9.916C49.5404 9.916 49.7244 9.988 49.8684 10.132C50.0204 10.268 50.0964 10.44 50.0964 10.648C50.0964 10.864 50.0204 11.048 49.8684 11.2C49.7244 11.344 49.5404 11.416 49.3164 11.416ZM53.196 13.708C53.396 13.34 53.692 13.06 54.084 12.868C54.476 12.676 54.952 12.58 55.512 12.58V13.696C55.448 13.688 55.36 13.684 55.248 13.684C54.624 13.684 54.132 13.872 53.772 14.248C53.42 14.616 53.244 15.144 53.244 15.832V19H52.092V12.64H53.196V13.708ZM66.1645 12.64V19H65.0725V18.04C64.8405 18.368 64.5325 18.624 64.1485 18.808C63.7725 18.984 63.3605 19.072 62.9125 19.072C62.0645 19.072 61.3965 18.84 60.9085 18.376C60.4205 17.904 60.1765 17.212 60.1765 16.3V12.64H61.3285V16.168C61.3285 16.784 61.4765 17.252 61.7725 17.572C62.0685 17.884 62.4925 18.04 63.0445 18.04C63.6525 18.04 64.1325 17.856 64.4845 17.488C64.8365 17.12 65.0125 16.6 65.0125 15.928V12.64H66.1645ZM71.7536 12.58C72.5616 12.58 73.2016 12.816 73.6736 13.288C74.1536 13.752 74.3936 14.436 74.3936 15.34V19H73.2416V15.472C73.2416 14.856 73.0936 14.392 72.7976 14.08C72.5016 13.768 72.0776 13.612 71.5256 13.612C70.9016 13.612 70.4096 13.796 70.0496 14.164C69.6896 14.524 69.5096 15.044 69.5096 15.724V19H68.3576V12.64H69.4616V13.6C69.6936 13.272 70.0056 13.02 70.3976 12.844C70.7976 12.668 71.2496 12.58 71.7536 12.58ZM82.5203 19.072C81.8723 19.072 81.2923 18.932 80.7803 18.652C80.2763 18.372 79.8803 17.988 79.5923 17.5C79.3043 17.004 79.1603 16.444 79.1603 15.82C79.1603 15.196 79.3043 14.64 79.5923 14.152C79.8803 13.656 80.2763 13.272 80.7803 13C81.2923 12.72 81.8723 12.58 82.5203 12.58C83.0963 12.58 83.6083 12.696 84.0563 12.928C84.5123 13.16 84.8643 13.496 85.1123 13.936L84.2363 14.5C84.0363 14.196 83.7883 13.968 83.4923 13.816C83.1963 13.664 82.8683 13.588 82.5083 13.588C82.0923 13.588 81.7163 13.68 81.3803 13.864C81.0523 14.048 80.7923 14.312 80.6003 14.656C80.4163 14.992 80.3243 15.38 80.3243 15.82C80.3243 16.268 80.4163 16.664 80.6003 17.008C80.7923 17.344 81.0523 17.604 81.3803 17.788C81.7163 17.972 82.0923 18.064 82.5083 18.064C82.8683 18.064 83.1963 17.988 83.4923 17.836C83.7883 17.684 84.0363 17.456 84.2363 17.152L85.1123 17.704C84.8643 18.144 84.5123 18.484 84.0563 18.724C83.6083 18.956 83.0963 19.072 82.5203 19.072ZM89.234 19.072C88.602 19.072 88.034 18.932 87.53 18.652C87.026 18.372 86.63 17.988 86.342 17.5C86.062 17.004 85.922 16.444 85.922 15.82C85.922 15.196 86.062 14.64 86.342 14.152C86.63 13.656 87.026 13.272 87.53 13C88.034 12.72 88.602 12.58 89.234 12.58C89.866 12.58 90.43 12.72 90.926 13C91.43 13.272 91.822 13.656 92.102 14.152C92.39 14.64 92.534 15.196 92.534 15.82C92.534 16.444 92.39 17.004 92.102 17.5C91.822 17.988 91.43 18.372 90.926 18.652C90.43 18.932 89.866 19.072 89.234 19.072ZM89.234 18.064C89.642 18.064 90.006 17.972 90.326 17.788C90.654 17.596 90.91 17.332 91.094 16.996C91.278 16.652 91.37 16.26 91.37 15.82C91.37 15.38 91.278 14.992 91.094 14.656C90.91 14.312 90.654 14.048 90.326 13.864C90.006 13.68 89.642 13.588 89.234 13.588C88.826 13.588 88.458 13.68 88.13 13.864C87.81 14.048 87.554 14.312 87.362 14.656C87.178 14.992 87.086 15.38 87.086 15.82C87.086 16.26 87.178 16.652 87.362 16.996C87.554 17.332 87.81 17.596 88.13 17.788C88.458 17.972 88.826 18.064 89.234 18.064ZM102.083 12.58C102.883 12.58 103.515 12.812 103.979 13.276C104.451 13.74 104.687 14.428 104.687 15.34V19H103.535V15.472C103.535 14.856 103.391 14.392 103.103 14.08C102.823 13.768 102.419 13.612 101.891 13.612C101.307 13.612 100.843 13.796 100.499 14.164C100.155 14.524 99.9832 15.044 99.9832 15.724V19H98.8312V15.472C98.8312 14.856 98.6872 14.392 98.3992 14.08C98.1192 13.768 97.7152 13.612 97.1872 13.612C96.6032 13.612 96.1392 13.796 95.7952 14.164C95.4512 14.524 95.2792 15.044 95.2792 15.724V19H94.1272V12.64H95.2312V13.588C95.4632 13.26 95.7672 13.012 96.1432 12.844C96.5192 12.668 96.9472 12.58 97.4272 12.58C97.9232 12.58 98.3632 12.68 98.7472 12.88C99.1312 13.08 99.4272 13.372 99.6352 13.756C99.8752 13.388 100.207 13.1 100.631 12.892C101.063 12.684 101.547 12.58 102.083 12.58ZM110.179 12.58C110.795 12.58 111.347 12.716 111.835 12.988C112.323 13.26 112.703 13.64 112.975 14.128C113.255 14.616 113.395 15.18 113.395 15.82C113.395 16.46 113.255 17.028 112.975 17.524C112.703 18.012 112.323 18.392 111.835 18.664C111.347 18.936 110.795 19.072 110.179 19.072C109.723 19.072 109.303 18.984 108.919 18.808C108.543 18.632 108.223 18.376 107.959 18.04V21.328H106.807V12.64H107.911V13.648C108.167 13.296 108.491 13.032 108.883 12.856C109.275 12.672 109.707 12.58 110.179 12.58ZM110.083 18.064C110.491 18.064 110.855 17.972 111.175 17.788C111.503 17.596 111.759 17.332 111.943 16.996C112.135 16.652 112.231 16.26 112.231 15.82C112.231 15.38 112.135 14.992 111.943 14.656C111.759 14.312 111.503 14.048 111.175 13.864C110.855 13.68 110.491 13.588 110.083 13.588C109.683 13.588 109.319 13.684 108.991 13.876C108.671 14.06 108.415 14.32 108.223 14.656C108.039 14.992 107.947 15.38 107.947 15.82C107.947 16.26 108.039 16.652 108.223 16.996C108.407 17.332 108.663 17.596 108.991 17.788C109.319 17.972 109.683 18.064 110.083 18.064ZM118.563 18.628C118.395 18.772 118.187 18.884 117.939 18.964C117.691 19.036 117.435 19.072 117.171 19.072C116.531 19.072 116.035 18.9 115.683 18.556C115.331 18.212 115.155 17.72 115.155 17.08V13.588H114.075V12.64H115.155V11.248H116.307V12.64H118.131V13.588H116.307V17.032C116.307 17.376 116.391 17.64 116.559 17.824C116.735 18.008 116.983 18.1 117.303 18.1C117.655 18.1 117.955 18 118.203 17.8L118.563 18.628ZM125.492 15.856C125.492 15.944 125.484 16.06 125.468 16.204H120.308C120.38 16.764 120.624 17.216 121.04 17.56C121.464 17.896 121.988 18.064 122.612 18.064C123.372 18.064 123.984 17.808 124.448 17.296L125.084 18.04C124.796 18.376 124.436 18.632 124.004 18.808C123.58 18.984 123.104 19.072 122.576 19.072C121.904 19.072 121.308 18.936 120.788 18.664C120.268 18.384 119.864 17.996 119.576 17.5C119.296 17.004 119.156 16.444 119.156 15.82C119.156 15.204 119.292 14.648 119.564 14.152C119.844 13.656 120.224 13.272 120.704 13C121.192 12.72 121.74 12.58 122.348 12.58C122.956 12.58 123.496 12.72 123.968 13C124.448 13.272 124.82 13.656 125.084 14.152C125.356 14.648 125.492 15.216 125.492 15.856ZM122.348 13.552C121.796 13.552 121.332 13.72 120.956 14.056C120.588 14.392 120.372 14.832 120.308 15.376H124.388C124.324 14.84 124.104 14.404 123.728 14.068C123.36 13.724 122.9 13.552 122.348 13.552Z" fill="white"/>
<rect x="0.5" y="0.5" width="140" height="28" rx="3.5" stroke="white"/>
</svg>
